<?xml version="1.0" encoding="utf-8"?>
<!-- Generator: Adobe Illustrator 19.0.0, SVG Export Plug-In . SVG Version: 6.00 Build 0)  -->
<svg version="1.1" id="Warstwa_1" xmlns="http://www.w3.org/2000/svg" xmlns:xlink="http://www.w3.org/1999/xlink" x="0px" y="0px"
	 viewBox="0 0 32 16" style="enable-background:new 0 0 32 16;" xml:space="preserve">
<style type="text/css">
	.st0{fill:#274555;}
	.st1{fill:#E8BE83;}
</style>
<g id="XMLID_1_">
	<path id="XMLID_5_" class="st0" d="M3.6,10.5c-0.1,0-0.2,0.1-0.4,0.1c-0.3,0-0.5-0.1-0.7-0.4L2.4,10c-0.3,0-0.6-0.1-0.8-0.4
		C1.4,9.4,1.3,9,1.3,8.6c0-0.4,0.1-0.8,0.3-1c0.2-0.2,0.5-0.3,0.8-0.3c0.4,0,0.6,0.1,0.9,0.3c0.2,0.2,0.3,0.6,0.3,1
		c0,0.4-0.1,0.6-0.2,0.9S3.1,9.8,2.9,9.9L3,10c0.1,0.1,0.2,0.2,0.3,0.2c0.1,0,0.2,0,0.4-0.1V10.5z M3.2,8.6c0-0.3-0.1-0.5-0.2-0.7
		C2.9,7.8,2.7,7.7,2.5,7.7C2.3,7.7,2.1,7.8,2,7.9C1.9,8.1,1.8,8.3,1.8,8.6S1.9,9.1,2,9.3c0.1,0.2,0.3,0.2,0.5,0.2
		c0.2,0,0.4-0.1,0.5-0.2C3.1,9.1,3.2,8.9,3.2,8.6z"/>
	<path id="XMLID_12_" class="st0" d="M5.5,9.5C5.4,9.8,5.2,9.9,4.9,9.9c-0.3,0-0.6-0.1-0.7-0.4c0-0.1-0.1-0.2-0.1-0.3V8h0.5v1.2
		c0,0.1,0,0.2,0.1,0.3C4.8,9.5,4.9,9.5,5,9.5s0.2,0,0.2,0c0.1,0,0.1-0.1,0.2-0.1c0.1-0.1,0.2-0.3,0.2-0.5V8H6v1.9H5.5V9.5z"/>
	<path id="XMLID_14_" class="st0" d="M7.4,8.8c0.2,0,0.3,0,0.5,0.1V8.6c0-0.1,0-0.2-0.1-0.3C7.8,8.3,7.7,8.2,7.6,8.2
		c-0.1,0-0.2,0-0.3,0.1c-0.1,0-0.1,0.1-0.1,0.2H6.7c0-0.2,0.1-0.4,0.2-0.5C7.1,8,7.3,7.9,7.6,7.9C8,7.9,8.2,8,8.3,8.3
		c0,0.1,0.1,0.2,0.1,0.3v1.2H8l0-0.3C7.8,9.9,7.6,10,7.4,10c-0.3,0-0.4-0.1-0.6-0.2C6.7,9.7,6.6,9.5,6.6,9.3S6.7,9,6.8,8.9
		C6.9,8.8,7.1,8.8,7.4,8.8z M7.9,9.1c-0.2,0-0.3-0.1-0.4-0.1c-0.3,0-0.4,0.1-0.4,0.3c0,0.1,0,0.1,0.1,0.2s0.2,0.1,0.3,0.1
		c0.1,0,0.2,0,0.3-0.1C7.9,9.4,7.9,9.3,7.9,9.1z"/>
	<path id="XMLID_30_" class="st0" d="M9.5,8.3C9.7,8,9.9,7.9,10.2,7.9c0.2,0,0.4,0.1,0.5,0.2c0.1,0.2,0.2,0.4,0.2,0.6v1.1h-0.5V8.8
		c0-0.1,0-0.3-0.1-0.3S10.1,8.3,10,8.3c-0.1,0-0.2,0.1-0.3,0.2C9.6,8.6,9.6,8.8,9.5,9v0.9H9.1V8h0.4L9.5,8.3z"/>
	<path id="XMLID_32_" class="st0" d="M12.7,9.9c-0.2,0.1-0.3,0.1-0.4,0.1c-0.1,0-0.2,0-0.3,0c-0.1,0-0.1-0.1-0.2-0.1
		c-0.1-0.1-0.2-0.3-0.2-0.5V8.3h-0.3V8h0.3V7.4h0.5V8h0.5v0.3h-0.5v1.1c0,0.2,0.1,0.2,0.2,0.2c0.1,0,0.2,0,0.3-0.1L12.7,9.9z"/>
	<path id="XMLID_34_" class="st0" d="M14.4,9.5c-0.1,0.3-0.3,0.4-0.6,0.4c-0.3,0-0.6-0.1-0.7-0.4c0-0.1-0.1-0.2-0.1-0.3V8h0.5v1.2
		c0,0.1,0,0.2,0.1,0.3c0.1,0.1,0.1,0.1,0.2,0.1c0.1,0,0.2,0,0.2,0c0.1,0,0.1-0.1,0.2-0.1c0.1-0.1,0.2-0.3,0.2-0.5V8h0.5v1.9h-0.5
		V9.5z"/>
	<path id="XMLID_36_" class="st0" d="M17.4,8.3C17.5,8,17.7,7.9,18,7.9c0.2,0,0.4,0.1,0.5,0.2c0.1,0.1,0.2,0.4,0.2,0.6v1.1h-0.5V8.8
		c0-0.1,0-0.3-0.1-0.3S18,8.3,17.9,8.3c-0.1,0-0.2,0.1-0.3,0.2S17.5,8.8,17.5,9v0.9H17V8.8c0-0.1,0-0.3-0.1-0.3s-0.2-0.1-0.3-0.1
		c-0.1,0-0.2,0.1-0.3,0.2c-0.1,0.1-0.1,0.3-0.1,0.5v0.9h-0.5V8h0.4l0.1,0.3c0.1-0.3,0.3-0.4,0.6-0.4c0.2,0,0.3,0,0.4,0.1
		C17.2,8.1,17.3,8.2,17.4,8.3z"/>
	<path id="XMLID_38_" class="st1" d="M20.8,8c0-0.2-0.2-0.3-0.5-0.3c-0.1,0-0.2,0-0.3,0.1c-0.1,0.1-0.1,0.1-0.1,0.2
		c0,0.1,0,0.1,0.1,0.2c0,0,0.1,0.1,0.2,0.1l0.6,0.2c0.2,0.1,0.3,0.2,0.4,0.3c0.1,0.1,0.2,0.3,0.2,0.4c0,0.2-0.1,0.4-0.3,0.6
		c-0.2,0.1-0.4,0.2-0.8,0.2c-0.3,0-0.5-0.1-0.7-0.2c-0.2-0.2-0.3-0.4-0.3-0.7h0.5c0,0.2,0.1,0.3,0.3,0.4c0.1,0,0.2,0,0.3,0
		s0.2,0,0.3-0.1s0.1-0.1,0.1-0.2s0-0.2-0.1-0.2c-0.1,0-0.1-0.1-0.2-0.1L20,8.7c-0.2-0.1-0.4-0.2-0.5-0.3S19.4,8.1,19.4,8
		c0-0.2,0.1-0.4,0.3-0.5c0.2-0.1,0.4-0.2,0.7-0.2s0.5,0.1,0.7,0.2c0.2,0.1,0.3,0.3,0.3,0.6H20.8z"/>
	<path id="XMLID_40_" class="st1" d="M22.8,7.9c0.1,0,0.3,0,0.4,0.1s0.2,0.1,0.3,0.2c0.2,0.2,0.3,0.4,0.3,0.8c0,0.3-0.1,0.6-0.3,0.8
		C23.3,9.9,23,10,22.8,10s-0.5-0.1-0.7-0.3c-0.2-0.2-0.3-0.4-0.3-0.8c0-0.3,0.1-0.6,0.3-0.8C22.3,8,22.5,7.9,22.8,7.9z M23.2,8.9
		c0-0.2,0-0.4-0.1-0.5c-0.1-0.1-0.2-0.2-0.3-0.2c-0.1,0-0.3,0.1-0.4,0.2c-0.1,0.1-0.1,0.3-0.1,0.5c0,0.2,0,0.4,0.1,0.5
		c0.1,0.1,0.2,0.2,0.3,0.2s0.3-0.1,0.3-0.2C23.2,9.3,23.2,9.1,23.2,8.9z"/>
	<path id="XMLID_43_" class="st1" d="M24.3,7.2h0.5v2.7h-0.5V7.2z"/>
	<path id="XMLID_45_" class="st1" d="M25.7,8l0.4,1.5L26.6,8h0.5l-0.7,1.9h-0.5L25.2,8H25.7z"/>
	<path id="XMLID_47_" class="st1" d="M29.1,8.5c0,0.1,0,0.2,0,0.3c0,0.1,0,0.2,0,0.3h-1.3c0,0.2,0,0.3,0.1,0.4
		c0.1,0.1,0.2,0.1,0.3,0.1c0.2,0,0.3-0.1,0.3-0.3h0.5c0,0.2-0.1,0.3-0.3,0.5c-0.2,0.1-0.3,0.2-0.6,0.2c-0.3,0-0.5-0.1-0.6-0.3
		c-0.2-0.2-0.3-0.4-0.3-0.7c0-0.3,0.1-0.6,0.3-0.8C27.8,8,28,7.9,28.3,7.9c0.3,0,0.5,0.1,0.6,0.3C29,8.3,29,8.4,29.1,8.5z M28.3,8.3
		c-0.1,0-0.2,0-0.3,0.1c-0.1,0.1-0.1,0.2-0.1,0.3h0.8c0-0.2-0.1-0.4-0.2-0.4C28.4,8.3,28.4,8.3,28.3,8.3z"/>
	<path id="XMLID_50_" class="st1" d="M30.2,8.3c0.1-0.3,0.3-0.4,0.5-0.4c0,0,0.1,0,0.2,0l0,0.5c-0.1,0-0.1,0-0.2,0
		c-0.3,0-0.5,0.2-0.5,0.7v0.9h-0.5V8h0.5V8.3z"/>
</g>
</svg>
