<?xml version="1.0" standalone="no"?>
<!DOCTYPE svg PUBLIC "-//W3C//DTD SVG 20010904//EN"
 "http://www.w3.org/TR/2001/REC-SVG-20010904/DTD/svg10.dtd">
<svg version="1.0" xmlns="http://www.w3.org/2000/svg"
 width="1083.000000pt" height="1083.000000pt" viewBox="0 0 1083.000000 1083.000000"
 preserveAspectRatio="xMidYMid meet">
<metadata>
Created by potrace 1.11, written by Peter Selinger 2001-2013
</metadata>
<g transform="translate(0.000000,1083.000000) scale(0.100000,-0.100000)"
fill="#000000" stroke="none">
<path d="M590 5409 l0 -1531 658 4 c723 5 752 7 932 70 227 80 358 220 422
453 19 70 22 107 22 295 1 199 -1 221 -22 290 -75 238 -211 370 -477 464 -17
6 -8 14 49 44 169 89 274 237 323 456 25 111 22 368 -6 471 -78 294 -280 454
-636 505 -40 5 -326 10 -667 10 l-598 0 0 -1531z m1335 1357 c178 -46 297
-132 360 -260 48 -96 65 -186 65 -336 1 -235 -50 -381 -172 -496 -57 -54 -98
-77 -188 -108 -120 -40 -248 -47 -770 -44 l-475 3 -3 633 -2 633 557 -4 c496
-3 566 -5 628 -21z m55 -1420 c152 -40 235 -81 317 -159 66 -62 108 -127 141
-219 24 -68 26 -85 26 -248 1 -196 -10 -253 -68 -375 -73 -152 -215 -246 -442
-292 -79 -16 -150 -18 -649 -18 l-560 0 -3 668 -2 668 587 -4 c515 -3 596 -6
653 -21z"/>
<path d="M3595 5750 c-391 -53 -544 -314 -545 -930 0 -314 24 -463 102 -620
74 -151 175 -228 355 -271 77 -18 110 -20 263 -17 146 4 187 9 245 28 242 78
340 218 396 565 9 50 13 169 13 320 -1 276 -20 411 -77 563 -74 197 -178 292
-374 342 -88 23 -279 33 -378 20z m342 -103 c216 -60 314 -191 369 -493 26
-140 26 -556 1 -694 -64 -345 -205 -461 -562 -463 -280 -1 -423 71 -510 256
-67 141 -87 273 -87 567 -1 300 20 434 91 585 88 188 257 271 531 260 63 -2
138 -11 167 -18z"/>
<path d="M4830 4830 l0 -900 50 0 50 0 0 430 0 430 535 0 535 0 0 -430 0 -430
50 0 50 0 0 900 0 900 -50 0 -50 0 0 -425 0 -425 -535 0 -535 0 0 425 0 425
-50 0 -50 0 0 -900z"/>
<path d="M6570 4831 l0 -901 45 0 45 0 2 373 3 372 308 0 308 0 48 -90 c71
-134 193 -362 278 -517 l75 -138 50 0 c44 0 49 2 44 18 -4 9 -92 177 -197 373
-104 195 -189 358 -189 361 0 3 26 14 57 24 133 42 233 143 276 279 19 60 22
93 22 235 0 145 -3 173 -23 230 -43 125 -129 208 -260 252 -64 22 -84 23 -479
26 l-413 3 0 -900z m815 797 c170 -50 242 -139 266 -330 12 -95 -2 -223 -33
-305 -15 -40 -39 -75 -78 -114 -102 -103 -195 -121 -610 -117 l-265 3 -3 430
c-1 237 0 436 3 444 8 20 648 10 720 -11z"/>
</g>
</svg>
